<svg viewBox="0 0 24 24" fill="none" xmlns="http://www.w3.org/2000/svg">
    <path fill-rule="evenodd" clip-rule="evenodd" d="M22 12C22 17.5228 17.5228 22 12 22C6.47715 22 2 17.5228 2 12C2 6.47715 6.47715 2 12 2C17.5228 2 22 6.47715 22 12ZM8.45227 16.9152V9.69747H6.20847V16.9152H8.45227ZM7.32976 8.71285C8.11306 8.71285 8.60155 8.19389 8.60155 7.54589C8.58661 6.88295 8.11306 6.37893 7.34471 6.37893C6.57636 6.37893 6.0729 6.88295 6.0729 7.54589C6.0729 8.19389 6.5614 8.71285 7.31482 8.71285H7.32976ZM17.9262 16.9152H15.6811V13.048C15.6811 12.0792 15.3341 11.4172 14.466 11.4172C13.803 11.4172 13.4116 11.864 13.247 12.2961C13.1873 12.4402 13.1723 12.6416 13.1723 12.8431V16.9152H10.9272C10.9272 16.9152 10.957 10.3456 10.9272 9.69747H13.1723V10.72C13.4704 10.2608 14.0041 9.54078 15.2774 9.54078C16.8152 9.54078 17.9262 10.5484 17.9262 12.7167V16.9152Z" fill="#fff" />
</svg>
